# xmcd CD database file
#
# Track frame offsets:
#	150
#	37574
#	69354
#	102376
#	142708
#	174022
#	209347
#	243006
#	270103
#
# Disc length: 4063 seconds
#
# Revision: 0
# Processed by: cddbd v1.5PL3 Copyright (c) Steve Scherf et al.
# Submitted via: CDex 1.51
#
DISCID=5e0fdd09
DTITLE=jaja - 『めぐり逢い…』
DYEAR=2003
DGENRE=Jazz
TTITLE0=Home Bound
TTITLE1=Sun Rise
TTITLE2=めぐり逢い
TTITLE3=月 夜 野
TTITLE4=Desperade
TTITLE5=Villa Sky
TTITLE6=Tatoo
TTITLE7=Take it easy
TTITLE8=I Love You
EXTD=YEAR: 2003
EXTT0=
EXTT1=
EXTT2=
EXTT3=
EXTT4=
EXTT5=
EXTT6=
EXTT7=
EXTT8=
PLAYORDER=
